<?xml version="1.0" encoding="UTF-8"?>
<svg xmlns="http://www.w3.org/2000/svg" viewBox="0 0 1448 1086" width="1448" height="1086" preserveAspectRatio="xMidYMid meet">
  <title>Madero Kralupy — Polep výlohy</title>
  <desc>Návrh polepu na výlohu. Vektor — připraveno pro tisk libovolné velikosti. Před tiskem doporučujeme v Inkscape/Illustratoru převést text na cesty (Path → Object to Path), případně exportovat do PDF s embedded fonts.</desc>

  <defs>
    <style>
      @import url('https://fonts.googleapis.com/css2?family=Cormorant+Garamond:ital,wght@0,300;0,400;0,500;0,600;1,400&amp;family=Dancing+Script:wght@400;500;600&amp;family=Inter:wght@300;400;500;600&amp;display=swap');
      .display { font-family: 'Cormorant Garamond', 'Times New Roman', serif; font-weight: 400; }
      .display-bold { font-family: 'Cormorant Garamond', 'Times New Roman', serif; font-weight: 600; letter-spacing: 0.06em; }
      .display-light { font-family: 'Cormorant Garamond', 'Times New Roman', serif; font-weight: 300; letter-spacing: 0.18em; }
      .script { font-family: 'Dancing Script', cursive; font-weight: 500; }
      .sans { font-family: 'Inter', system-ui, sans-serif; font-weight: 400; }
      .sans-medium { font-family: 'Inter', system-ui, sans-serif; font-weight: 500; letter-spacing: 0.16em; text-transform: uppercase; }
      .sans-light { font-family: 'Inter', system-ui, sans-serif; font-weight: 300; letter-spacing: 0.18em; text-transform: uppercase; }
    </style>

    <!-- decorative leaf branch -->
    <symbol id="leaf-branch" viewBox="0 0 100 200" overflow="visible">
      <g stroke="#8B6F47" stroke-width="1.3" fill="none" stroke-linecap="round">
        <path d="M 50 0 Q 48 50 50 100 Q 52 150 50 200"/>
        <path d="M 50 18 Q 32 16 22 28 Q 32 34 50 28"/>
        <path d="M 50 28 Q 68 26 78 38 Q 68 44 50 38"/>
        <path d="M 50 50 Q 30 48 18 60 Q 30 68 50 60"/>
        <path d="M 50 62 Q 70 60 82 72 Q 70 78 50 72"/>
        <path d="M 50 86 Q 32 84 22 96 Q 32 104 50 96"/>
        <path d="M 50 100 Q 68 98 80 110 Q 68 118 50 110"/>
        <path d="M 50 122 Q 28 120 16 132 Q 28 140 50 132"/>
        <path d="M 50 136 Q 72 134 84 146 Q 72 154 50 146"/>
        <path d="M 50 160 Q 32 158 22 170 Q 32 178 50 170"/>
        <path d="M 50 174 Q 70 172 80 184 Q 70 190 50 184"/>
      </g>
    </symbol>

    <!-- lotus -->
    <symbol id="lotus" viewBox="0 0 80 50" overflow="visible">
      <g stroke="#8B6F47" stroke-width="1.4" fill="none" stroke-linecap="round">
        <path d="M 40 45 Q 25 40 20 25 Q 30 28 40 38"/>
        <path d="M 40 45 Q 55 40 60 25 Q 50 28 40 38"/>
        <path d="M 40 45 Q 18 38 8 18 Q 22 22 38 38"/>
        <path d="M 40 45 Q 62 38 72 18 Q 58 22 42 38"/>
        <path d="M 40 45 Q 38 30 40 12 Q 42 30 40 45"/>
        <line x1="6" y1="46" x2="74" y2="46"/>
      </g>
    </symbol>

    <!-- madero rollers icon (two crossed wooden rollers) -->
    <symbol id="icon-madero" viewBox="0 0 60 60" overflow="visible">
      <g stroke="#8B6F47" stroke-width="1.6" fill="none" stroke-linecap="round" stroke-linejoin="round">
        <line x1="14" y1="44" x2="46" y2="14"/>
        <ellipse cx="20" cy="40" rx="9" ry="5" transform="rotate(-43 20 40)"/>
        <ellipse cx="40" cy="20" rx="9" ry="5" transform="rotate(-43 40 20)"/>
        <line x1="20" y1="40" x2="20" y2="40" stroke-width="3"/>
      </g>
    </symbol>

    <!-- head spa: head with steam -->
    <symbol id="icon-headspa" viewBox="0 0 60 60" overflow="visible">
      <g stroke="#8B6F47" stroke-width="1.6" fill="none" stroke-linecap="round">
        <ellipse cx="30" cy="36" rx="14" ry="14"/>
        <path d="M 16 30 Q 14 18 26 16 Q 26 22 28 26"/>
        <path d="M 44 30 Q 46 18 34 16 Q 34 22 32 26"/>
        <path d="M 22 14 Q 24 8 22 4" stroke-dasharray="2 2"/>
        <path d="M 30 12 Q 32 6 30 2" stroke-dasharray="2 2"/>
        <path d="M 38 14 Q 40 8 38 4" stroke-dasharray="2 2"/>
      </g>
    </symbol>

    <!-- lymf: drops -->
    <symbol id="icon-lymf" viewBox="0 0 60 60" overflow="visible">
      <g stroke="#8B6F47" stroke-width="1.6" fill="none" stroke-linecap="round" stroke-linejoin="round">
        <path d="M 22 10 Q 16 26 16 36 Q 16 46 22 50 Q 28 46 28 36 Q 28 26 22 10 Z"/>
        <path d="M 40 18 Q 35 30 35 38 Q 35 46 40 48 Q 45 46 45 38 Q 45 30 40 18 Z"/>
      </g>
    </symbol>

    <!-- relax: lotus / petal flower -->
    <symbol id="icon-relax" viewBox="0 0 60 60" overflow="visible">
      <g stroke="#8B6F47" stroke-width="1.6" fill="none" stroke-linecap="round">
        <path d="M 30 50 Q 18 46 12 30 Q 22 32 30 42"/>
        <path d="M 30 50 Q 42 46 48 30 Q 38 32 30 42"/>
        <path d="M 30 50 Q 16 42 8 22 Q 22 26 30 42"/>
        <path d="M 30 50 Q 44 42 52 22 Q 38 26 30 42"/>
        <path d="M 30 50 Q 28 32 30 14"/>
      </g>
    </symbol>
  </defs>

  <!-- background -->
  <rect width="1448" height="1086" fill="#EDDFCB"/>
  <radialGradient id="bgGrad" cx="50%" cy="40%" r="65%">
    <stop offset="0%" stop-color="#F5EBD8" stop-opacity="0.7"/>
    <stop offset="100%" stop-color="#E5D4BB" stop-opacity="0"/>
  </radialGradient>
  <rect width="1448" height="1086" fill="url(#bgGrad)"/>

  <!-- column dividers -->
  <line x1="290" y1="40" x2="290" y2="1046" stroke="#C09872" stroke-width="1" stroke-dasharray="2 4" opacity="0.35"/>
  <line x1="1158" y1="40" x2="1158" y2="1046" stroke="#C09872" stroke-width="1" stroke-dasharray="2 4" opacity="0.35"/>

  <!-- ─── LEFT COLUMN ─────────────────────────────────── -->
  <g id="left-col">
    <use href="#leaf-branch" x="20" y="40" width="80" height="160" opacity="0.55"/>

    <!-- mini logo -->
    <g transform="translate(145 130)" text-anchor="middle">
      <text class="sans-medium" font-size="13" fill="#5A3F2A">HEAD SPA</text>
      <text class="display-bold" font-size="40" fill="#5A3F2A" y="42">MADERO</text>
      <line x1="-30" y1="60" x2="30" y2="60" stroke="#8B6F47" stroke-width="0.8"/>
      <text class="script" font-size="36" fill="#8B6F47" y="100">Kralupy</text>
      <use href="#lotus" x="-22" y="118" width="44" height="28" opacity="0.7"/>
    </g>

    <!-- "Na objednání" -->
    <g transform="translate(145 320)" text-anchor="middle">
      <text class="display-light" font-size="17" fill="#5A3F2A">NA OBJEDNÁNÍ</text>
      <text class="display-light" font-size="17" fill="#5A3F2A" y="26">TĚŠÍME SE NA VÁS</text>
    </g>

    <line x1="60" y1="385" x2="230" y2="385" stroke="#8B6F47" stroke-width="0.6"/>

    <!-- responsible person -->
    <g transform="translate(145 425)" text-anchor="middle">
      <text class="sans-light" font-size="9.5" fill="#8B6F47">Odpovědná osoba</text>
      <text class="display" font-size="20" font-weight="500" fill="#5A3F2A" y="26">Karolína Žohová</text>
      <text class="sans" font-size="11" fill="#8B6F47" y="50" letter-spacing="0.1em">IČO: 23114291</text>
    </g>

    <!-- phone -->
    <g transform="translate(40 525)">
      <circle cx="20" cy="20" r="14" fill="none" stroke="#8B6F47" stroke-width="1.3"/>
      <path d="M 14 16 Q 16 24 22 26 L 24 22 Q 28 24 28 28 Q 24 30 16 26 Q 12 22 14 16 Z" fill="none" stroke="#8B6F47" stroke-width="1.3" stroke-linejoin="round"/>
      <text class="display" font-size="22" font-weight="500" fill="#5A3F2A" x="50" y="27">778 644 753</text>
    </g>

    <!-- instagram -->
    <g transform="translate(40 580)">
      <rect x="6" y="6" width="28" height="28" rx="7" fill="none" stroke="#8B6F47" stroke-width="1.3"/>
      <circle cx="20" cy="20" r="6.5" fill="none" stroke="#8B6F47" stroke-width="1.3"/>
      <circle cx="29" cy="11" r="1.6" fill="#8B6F47"/>
      <text class="sans" font-size="14" font-weight="400" fill="#5A3F2A" x="50" y="26" letter-spacing="0.04em">madero_kralupy</text>
    </g>

    <!-- web -->
    <g transform="translate(40 635)">
      <circle cx="20" cy="20" r="14" fill="none" stroke="#8B6F47" stroke-width="1.3"/>
      <line x1="6" y1="20" x2="34" y2="20" stroke="#8B6F47" stroke-width="0.9"/>
      <ellipse cx="20" cy="20" rx="6" ry="14" fill="none" stroke="#8B6F47" stroke-width="0.9"/>
      <text class="sans" font-size="13.5" font-weight="400" fill="#5A3F2A" x="50" y="26" letter-spacing="0.02em">maderokralupy.cz</text>
    </g>

    <!-- QR code -->
    <g transform="translate(70 720)">
      <text class="sans-light" font-size="9.5" fill="#8B6F47" text-anchor="middle" x="75">SKENUJTE PRO REZERVACI</text>
      <rect x="0" y="20" width="150" height="150" fill="#FFFFFF" stroke="#8B6F47" stroke-width="0.8"/>
      <g transform="translate(10 30) scale(4.4827586)">
        <path d="M2,2H3V3H2zM3,2H4V3H3zM4,2H5V3H4zM5,2H6V3H5zM6,2H7V3H6zM7,2H8V3H7zM8,2H9V3H8zM10,2H11V3H10zM11,2H12V3H11zM12,2H13V3H12zM14,2H15V3H14zM16,2H17V3H16zM20,2H21V3H20zM21,2H22V3H21zM22,2H23V3H22zM23,2H24V3H23zM24,2H25V3H24zM25,2H26V3H25zM26,2H27V3H26zM2,3H3V4H2zM8,3H9V4H8zM10,3H11V4H10zM11,3H12V4H11zM12,3H13V4H12zM13,3H14V4H13zM14,3H15V4H14zM15,3H16V4H15zM18,3H19V4H18zM20,3H21V4H20zM26,3H27V4H26zM2,4H3V5H2zM4,4H5V5H4zM5,4H6V5H5zM6,4H7V5H6zM8,4H9V5H8zM10,4H11V5H10zM11,4H12V5H11zM14,4H15V5H14zM15,4H16V5H15zM17,4H18V5H17zM18,4H19V5H18zM20,4H21V5H20zM22,4H23V5H22zM23,4H24V5H23zM24,4H25V5H24zM26,4H27V5H26zM2,5H3V6H2zM4,5H5V6H4zM5,5H6V6H5zM6,5H7V6H6zM8,5H9V6H8zM11,5H12V6H11zM13,5H14V6H13zM14,5H15V6H14zM15,5H16V6H15zM18,5H19V6H18zM20,5H21V6H20zM22,5H23V6H22zM23,5H24V6H23zM24,5H25V6H24zM26,5H27V6H26zM2,6H3V7H2zM4,6H5V7H4zM5,6H6V7H5zM6,6H7V7H6zM8,6H9V7H8zM10,6H11V7H10zM11,6H12V7H11zM18,6H19V7H18zM20,6H21V7H20zM22,6H23V7H22zM23,6H24V7H23zM24,6H25V7H24zM26,6H27V7H26zM2,7H3V8H2zM8,7H9V8H8zM11,7H12V8H11zM13,7H14V8H13zM16,7H17V8H16zM18,7H19V8H18zM20,7H21V8H20zM26,7H27V8H26zM2,8H3V9H2zM3,8H4V9H3zM4,8H5V9H4zM5,8H6V9H5zM6,8H7V9H6zM7,8H8V9H7zM8,8H9V9H8zM10,8H11V9H10zM12,8H13V9H12zM14,8H15V9H14zM16,8H17V9H16zM18,8H19V9H18zM20,8H21V9H20zM21,8H22V9H21zM22,8H23V9H22zM23,8H24V9H23zM24,8H25V9H24zM25,8H26V9H25zM26,8H27V9H26zM13,9H14V10H13zM14,9H15V10H14zM15,9H16V10H15zM17,9H18V10H17zM2,10H3V11H2zM5,10H6V11H5zM6,10H7V11H6zM7,10H8V11H7zM8,10H9V11H8zM9,10H10V11H9zM10,10H11V11H10zM13,10H14V11H13zM16,10H17V11H16zM17,10H18V11H17zM19,10H20V11H19zM22,10H23V11H22zM24,10H25V11H24zM25,10H26V11H25zM26,10H27V11H26zM2,11H3V12H2zM4,11H5V12H4zM5,11H6V12H5zM6,11H7V12H6zM9,11H10V12H9zM10,11H11V12H10zM12,11H13V12H12zM13,11H14V12H13zM17,11H18V12H17zM21,11H22V12H21zM22,11H23V12H22zM23,11H24V12H23zM24,11H25V12H24zM25,11H26V12H25zM2,12H3V13H2zM7,12H8V13H7zM8,12H9V13H8zM10,12H11V13H10zM11,12H12V13H11zM12,12H13V13H12zM13,12H14V13H13zM16,12H17V13H16zM17,12H18V13H17zM18,12H19V13H18zM19,12H20V13H19zM20,12H21V13H20zM21,12H22V13H21zM22,12H23V13H22zM23,12H24V13H23zM26,12H27V13H26zM4,13H5V14H4zM6,13H7V14H6zM11,13H12V14H11zM17,13H18V14H17zM18,13H19V14H18zM20,13H21V14H20zM21,13H22V14H21zM22,13H23V14H22zM23,13H24V14H23zM24,13H25V14H24zM25,13H26V14H25zM26,13H27V14H26zM3,14H4V15H3zM5,14H6V15H5zM6,14H7V15H6zM7,14H8V15H7zM8,14H9V15H8zM9,14H10V15H9zM10,14H11V15H10zM11,14H12V15H11zM12,14H13V15H12zM13,14H14V15H13zM18,14H19V15H18zM20,14H21V15H20zM21,14H22V15H21zM26,14H27V15H26zM2,15H3V16H2zM5,15H6V16H5zM6,15H7V16H6zM7,15H8V16H7zM10,15H11V16H10zM12,15H13V16H12zM14,15H15V16H14zM17,15H18V16H17zM18,15H19V16H18zM22,15H23V16H22zM25,15H26V16H25zM2,16H3V17H2zM3,16H4V17H3zM6,16H7V17H6zM8,16H9V17H8zM12,16H13V17H12zM15,16H16V17H15zM17,16H18V17H17zM19,16H20V17H19zM20,16H21V17H20zM22,16H23V17H22zM23,16H24V17H23zM24,16H25V17H24zM25,16H26V17H25zM26,16H27V17H26zM2,17H3V18H2zM4,17H5V18H4zM10,17H11V18H10zM12,17H13V18H12zM14,17H15V18H14zM17,17H18V18H17zM20,17H21V18H20zM21,17H22V18H21zM23,17H24V18H23zM24,17H25V18H24zM26,17H27V18H26zM2,18H3V19H2zM6,18H7V19H6zM7,18H8V19H7zM8,18H9V19H8zM10,18H11V19H10zM13,18H14V19H13zM14,18H15V19H14zM15,18H16V19H15zM16,18H17V19H16zM18,18H19V19H18zM19,18H20V19H19zM20,18H21V19H20zM21,18H22V19H21zM22,18H23V19H22zM24,18H25V19H24zM25,18H26V19H25zM10,19H11V20H10zM11,19H12V20H11zM13,19H14V20H13zM15,19H16V20H15zM18,19H19V20H18zM22,19H23V20H22zM24,19H25V20H24zM25,19H26V20H25zM2,20H3V21H2zM3,20H4V21H3zM4,20H5V21H4zM5,20H6V21H5zM6,20H7V21H6zM7,20H8V21H7zM8,20H9V21H8zM10,20H11V21H10zM11,20H12V21H11zM14,20H15V21H14zM18,20H19V21H18zM20,20H21V21H20zM22,20H23V21H22zM26,20H27V21H26zM2,21H3V22H2zM8,21H9V22H8zM10,21H11V22H10zM13,21H14V22H13zM15,21H16V22H15zM16,21H17V22H16zM17,21H18V22H17zM18,21H19V22H18zM22,21H23V22H22zM26,21H27V22H26zM2,22H3V23H2zM4,22H5V23H4zM5,22H6V23H5zM6,22H7V23H6zM8,22H9V23H8zM10,22H11V23H10zM11,22H12V23H11zM12,22H13V23H12zM13,22H14V23H13zM14,22H15V23H14zM16,22H17V23H16zM17,22H18V23H17zM18,22H19V23H18zM19,22H20V23H19zM20,22H21V23H20zM21,22H22V23H21zM22,22H23V23H22zM2,23H3V24H2zM4,23H5V24H4zM5,23H6V24H5zM6,23H7V24H6zM8,23H9V24H8zM10,23H11V24H10zM11,23H12V24H11zM14,23H15V24H14zM16,23H17V24H16zM19,23H20V24H19zM20,23H21V24H20zM25,23H26V24H25zM26,23H27V24H26zM2,24H3V25H2zM4,24H5V25H4zM5,24H6V25H5zM6,24H7V25H6zM8,24H9V25H8zM11,24H12V25H11zM13,24H14V25H13zM14,24H15V25H14zM15,24H16V25H15zM16,24H17V25H16zM17,24H18V25H17zM19,24H20V25H19zM22,24H23V25H22zM23,24H24V25H23zM24,24H25V25H24zM25,24H26V25H25zM26,24H27V25H26zM2,25H3V26H2zM8,25H9V26H8zM11,25H12V26H11zM12,25H13V26H12zM14,25H15V26H14zM16,25H17V26H16zM17,25H18V26H17zM20,25H21V26H20zM21,25H22V26H21zM22,25H23V26H22zM24,25H25V26H24zM25,25H26V26H25zM26,25H27V26H26zM2,26H3V27H2zM3,26H4V27H3zM4,26H5V27H4zM5,26H6V27H5zM6,26H7V27H6zM7,26H8V27H7zM8,26H9V27H8zM10,26H11V27H10zM18,26H19V27H18zM20,26H21V27H20zM23,26H24V27H23zM26,26H27V27H26z" fill="#5A3F2A"/>
      </g>
    </g>

    <use href="#leaf-branch" x="190" y="900" width="80" height="160" opacity="0.5"/>
  </g>

  <!-- ─── CENTER COLUMN ──────────────────────────────── -->
  <g id="center-col" transform="translate(290 0)">
    <!-- corner leaves -->
    <use href="#leaf-branch" x="20" y="60" width="100" height="180" transform="rotate(-15 70 150)" opacity="0.4"/>
    <use href="#leaf-branch" x="748" y="60" width="100" height="180" transform="scale(-1 1) translate(-848 0) rotate(-15 70 150)" opacity="0.4"/>
    <use href="#leaf-branch" x="20" y="600" width="100" height="180" transform="scale(1 -1) translate(0 -1380) rotate(15 70 150)" opacity="0.35"/>
    <use href="#leaf-branch" x="748" y="600" width="100" height="180" transform="scale(-1 -1) translate(-848 -1380) rotate(15 70 150)" opacity="0.35"/>

    <!-- big circular logo -->
    <g transform="translate(434 380)">
      <!-- outer circle -->
      <circle cx="0" cy="0" r="300" fill="none" stroke="#8B6F47" stroke-width="1.8"/>
      <!-- inner thin circle for elegance -->
      <circle cx="0" cy="0" r="288" fill="none" stroke="#8B6F47" stroke-width="0.5" opacity="0.5"/>

      <!-- top arc text -->
      <defs>
        <path id="topArc" d="M -210 -150 A 260 260 0 0 1 210 -150" fill="none"/>
        <path id="bottomArc" d="M -250 80 A 260 260 0 0 0 250 80" fill="none"/>
      </defs>
      <text class="sans-medium" font-size="14" fill="#8B6F47" letter-spacing="0.42em">
        <textPath href="#topArc" startOffset="50%" text-anchor="middle">
          ESTABLISHED · 2019 · KRALUPY
        </textPath>
      </text>

      <!-- ornament top -->
      <g transform="translate(0 -150)">
        <line x1="-30" y1="0" x2="-8" y2="0" stroke="#8B6F47" stroke-width="0.8"/>
        <line x1="8" y1="0" x2="30" y2="0" stroke="#8B6F47" stroke-width="0.8"/>
        <circle cx="0" cy="0" r="3" fill="#8B6F47"/>
      </g>

      <!-- main text -->
      <g text-anchor="middle">
        <text class="sans-medium" font-size="22" fill="#5A3F2A" y="-90" letter-spacing="0.4em">HEAD SPA</text>
        <text class="display-bold" font-size="120" fill="#5A3F2A" y="40" letter-spacing="0.04em">MADERO</text>
        <line x1="-90" y1="64" x2="-30" y2="64" stroke="#8B6F47" stroke-width="0.8"/>
        <line x1="30" y1="64" x2="90" y2="64" stroke="#8B6F47" stroke-width="0.8"/>
        <text class="script" font-size="92" fill="#8B6F47" y="170" font-weight="500">Kralupy</text>
      </g>

      <!-- lotus center bottom -->
      <use href="#lotus" x="-32" y="190" width="64" height="40" opacity="0.85"/>

      <!-- bottom arc text -->
      <text class="sans-medium" font-size="14" fill="#8B6F47" letter-spacing="0.32em">
        <textPath href="#bottomArc" startOffset="50%" text-anchor="middle">
          MADEROTERAPIE  ·  HEAD SPA  ·  LYMFOMODELING
        </textPath>
      </text>
    </g>

    <!-- 4 service icons -->
    <g transform="translate(434 850)" text-anchor="middle">
      <g transform="translate(-330 0)">
        <circle cx="0" cy="0" r="48" fill="none" stroke="#8B6F47" stroke-width="0.9"/>
        <use href="#icon-madero" x="-30" y="-30" width="60" height="60"/>
        <text class="sans-medium" font-size="13" fill="#5A3F2A" y="80">MADEROTERAPIE</text>
      </g>
      <g transform="translate(-110 0)">
        <circle cx="0" cy="0" r="48" fill="none" stroke="#8B6F47" stroke-width="0.9"/>
        <use href="#icon-headspa" x="-30" y="-30" width="60" height="60"/>
        <text class="sans-medium" font-size="13" fill="#5A3F2A" y="80">HEAD SPA</text>
      </g>
      <g transform="translate(110 0)">
        <circle cx="0" cy="0" r="48" fill="none" stroke="#8B6F47" stroke-width="0.9"/>
        <use href="#icon-lymf" x="-30" y="-30" width="60" height="60"/>
        <text class="sans-medium" font-size="13" fill="#5A3F2A" y="80">LYMFOMODELING</text>
      </g>
      <g transform="translate(330 0)">
        <circle cx="0" cy="0" r="48" fill="none" stroke="#8B6F47" stroke-width="0.9"/>
        <use href="#icon-relax" x="-30" y="-30" width="60" height="60"/>
        <text class="sans-medium" font-size="13" fill="#5A3F2A" y="80">RELAXAČNÍ</text>
        <text class="sans-medium" font-size="13" fill="#5A3F2A" y="96">RITUÁLY</text>
      </g>
    </g>

    <!-- bottom contact line -->
    <g transform="translate(434 1010)" text-anchor="middle">
      <line x1="-300" y1="-26" x2="-100" y2="-26" stroke="#8B6F47" stroke-width="0.8"/>
      <line x1="100" y1="-26" x2="300" y2="-26" stroke="#8B6F47" stroke-width="0.8"/>
      <use href="#lotus" x="-25" y="-46" width="50" height="32" opacity="0.5"/>
      <text class="sans-medium" font-size="13" fill="#5A3F2A" letter-spacing="0.28em" y="-2">
        OBJEDNÁVKY  ·  @madero_kralupy  ·  778 644 753
      </text>
    </g>
  </g>

  <!-- ─── RIGHT COLUMN ───────────────────────────────── -->
  <g id="right-col" transform="translate(1158 0)">
    <use href="#leaf-branch" x="160" y="50" width="100" height="200" transform="scale(-1 1) translate(-260 0)" opacity="0.55"/>

    <g transform="translate(145 480)" text-anchor="middle">
      <line x1="-1" y1="-100" x2="-1" y2="100" stroke="#C09872" stroke-width="0.6"/>
      <use href="#lotus" x="-25" y="-15" width="52" height="34" opacity="0.55"/>
    </g>

    <use href="#leaf-branch" x="30" y="830" width="100" height="200" opacity="0.55"/>

    <g transform="translate(145 770)" text-anchor="middle">
      <text class="display-light" font-size="14" fill="#8B6F47" letter-spacing="0.32em">EST.</text>
      <text class="display" font-size="32" fill="#5A3F2A" y="32" letter-spacing="0.14em">2019</text>
    </g>
  </g>

</svg>
